<svg width="39" height="39" viewBox="0 0 39 39" fill="none" xmlns="http://www.w3.org/2000/svg">
<path d="M21.2777 39C17.6976 38.939 14.1149 38.9395 10.5383 38.7956C8.12253 38.6982 5.70226 38.5277 3.31931 38.0391C1.94593 37.7571 1.10333 36.9807 0.89113 35.5998C0.760255 34.7878 0.684546 33.9683 0.664595 33.1465C0.589897 28.5656 0.584903 23.9839 0.473165 19.4041C0.388982 15.9505 0.171315 12.5004 0.0314038 9.04822C-0.0296004 7.54417 -0.0356612 6.05631 0.334292 4.55898C0.85959 2.4341 2.24377 1.29239 4.25803 0.79826C5.06326 0.613831 5.88539 0.512558 6.71147 0.496039C9.71212 0.393899 12.7149 0.349352 15.7158 0.256507C17.9454 0.187406 20.173 0.0252915 22.4024 0.00188432C24.1907 -0.016707 25.9804 0.10674 27.7693 0.175534C28.4338 0.204373 29.0758 0.423241 29.6185 0.80596C31.4436 2.04951 33.0582 3.53833 34.6722 5.03278C35.7195 6.0026 36.7866 6.95673 37.9051 7.84253C38.6397 8.42438 39.0107 9.11237 38.9998 10.0247C38.9751 12.0819 38.9619 14.1392 38.9147 16.196C38.8362 19.6239 38.6973 23.0506 38.6543 26.4788C38.6381 29.4969 38.255 32.5017 37.5137 35.4282C37.4104 35.8249 37.2785 36.2138 37.1604 36.6072C36.8326 37.6964 36.0671 38.3009 34.9711 38.4705C33.9957 38.6455 33.0099 38.7561 32.0199 38.8012C28.936 38.8653 25.8508 38.8673 22.766 38.8919C22.2705 38.8958 21.7747 38.8919 21.2788 38.8919C21.2785 38.9289 21.2783 38.9644 21.2777 39ZM6.56429 2.86142C5.77547 2.98311 5.09303 3.03888 4.43765 3.20097C3.42794 3.45061 2.72894 4.03903 2.56232 5.13825C2.49087 5.54292 2.38312 5.94033 2.24035 6.32583C1.90985 7.28476 1.92175 8.27209 2.00208 9.2562C2.23406 12.0969 2.58162 14.9311 2.72072 17.7759C2.90104 21.4729 2.93005 25.1772 3.01056 28.8789C3.05015 30.6885 3.05074 32.4989 3.08599 34.3088C3.11497 35.798 3.23087 35.9851 4.68315 36.1503C7.03358 36.4177 9.39108 36.7556 11.7496 36.7881C17.6418 36.8698 23.5372 36.815 29.4308 36.7721C30.9146 36.7612 32.3996 36.6159 33.8795 36.4835C34.8647 36.3953 34.9324 36.3233 35.1352 35.3934C35.3519 34.404 35.5323 33.405 35.692 32.4048C36.0955 29.8774 36.1078 27.325 36.1586 24.7748C36.1968 22.8558 36.2554 20.9367 36.3026 19.0175C36.3679 16.3579 36.4221 13.6983 36.501 11.039C36.5234 10.7701 36.4749 10.4999 36.3604 10.2552C36.2459 10.0106 36.0694 9.79994 35.848 9.64418C34.7949 8.80855 33.8113 7.88601 32.8 6.99873C31.397 5.76691 29.9813 4.54856 28.5982 3.2951C27.9744 2.73008 27.2575 2.64367 26.3949 2.65375C26.4271 3.24395 26.4807 3.78444 26.4788 4.32474C26.474 5.55689 26.5122 6.79526 26.403 8.01971C26.254 9.68554 25.5107 10.4567 23.8935 10.8524C23.6556 10.9194 23.4134 10.9706 23.169 11.0059C21.3372 11.2056 19.5082 11.4514 17.6711 11.5759C15.2546 11.7395 12.833 11.8814 10.4084 11.6576C8.65552 11.4958 7.71635 10.7631 7.21117 9.06682C6.79694 7.70086 6.57961 6.28324 6.56564 4.85638C6.56129 4.23301 6.56429 3.60984 6.56429 2.86142ZM23.7369 2.47352C22.4635 2.47352 21.2853 2.44614 20.1089 2.47918C17.4136 2.55486 14.7193 2.66644 12.024 2.75013C11.0065 2.78219 9.98739 2.77303 8.96929 2.7926C8.75454 2.80856 8.54089 2.83664 8.32937 2.87665C8.44318 4.80142 8.69357 6.63829 9.2419 8.42757C9.51687 9.32542 9.67314 9.45211 10.6394 9.51337C10.9961 9.53614 11.3551 9.55215 11.7122 9.54109C13.8298 9.47501 15.9512 9.45788 18.0631 9.30957C19.6782 9.1964 21.2847 8.93472 22.8887 8.69695C23.6528 8.58361 23.7642 8.44989 23.7816 7.67179C23.8138 6.24726 23.7978 4.82175 23.7939 3.39657C23.7934 3.1261 23.7616 2.85608 23.7369 2.47352Z" fill="#F5C99A"/>
<path d="M23.1378 16.7142C24.5819 16.7564 27.254 16.8312 29.9262 16.9166C30.2565 16.9328 30.5851 16.9741 30.909 17.0399C31.83 17.2111 32.4693 17.7078 32.6758 18.6138C32.8353 19.3134 32.962 20.0224 33.0556 20.7332C33.3654 23.0872 33.5541 25.4476 33.3314 27.821C33.2977 28.1382 33.2365 28.4525 33.1477 28.7599C32.8404 29.8715 32.0696 30.5307 30.927 30.7754C30.4444 30.8865 29.9506 30.9458 29.4545 30.9523C25.4847 30.9357 21.514 30.9341 17.5456 30.8523C15.4257 30.8088 13.3074 30.6294 11.1919 30.4823C10.6157 30.432 10.0449 30.3358 9.48507 30.195C7.76076 29.7924 6.96581 28.8975 6.84317 27.1773C6.79837 26.433 6.79837 25.6868 6.84317 24.9425C6.91924 23.4 7.02595 21.859 7.13036 20.3179C7.15384 20.0534 7.19886 19.7913 7.2651 19.5336C7.54065 18.3616 8.28951 17.6783 9.53442 17.5411C11.0133 17.3792 12.4909 17.1783 13.9751 17.0941C16.6156 16.9449 19.262 16.8701 23.1378 16.7142ZM30.4837 19.2861C29.3411 19.2207 28.3234 19.1051 27.3071 19.1149C23.7516 19.1494 20.1941 19.1678 16.6425 19.3101C14.3336 19.4025 12.0325 19.6899 9.73018 19.9111C9.10283 19.9713 9.05064 20.0564 8.96345 20.6474C8.93632 20.8319 8.92337 21.018 8.92475 21.2044C8.93753 23.1464 8.95315 25.0885 8.97166 27.0305C8.96933 27.27 8.98402 27.5095 9.01564 27.7473C9.02635 27.8949 9.08533 28.0358 9.18401 28.1491C9.28269 28.2625 9.416 28.3427 9.56487 28.3783C9.79961 28.4547 10.0408 28.5107 10.2857 28.5465C12.4268 28.7105 14.5669 28.9491 16.7112 28.9967C20.2937 29.0755 23.8791 29.0386 27.4633 29.0301C28.2621 29.022 29.0599 28.9744 29.8537 28.888C30.8216 28.7901 30.9916 28.6311 31.0166 27.6856C31.0733 25.5302 31.1132 23.3729 30.7669 21.2302C30.666 20.6051 30.5837 19.9773 30.4837 19.2861Z" fill="#F5C99A"/>
</svg>
